<svg width="35" height="36" viewBox="0 0 35 36" fill="none" xmlns="http://www.w3.org/2000/svg">
<path d="M23.0308 35.0708H22.8089C15.2278 35.0708 11.5739 32.0828 10.9422 25.3896C10.8739 24.6896 11.3861 24.0578 12.1032 23.9895C12.7862 23.9212 13.435 24.4505 13.5033 25.1506C13.9985 30.5119 16.5255 32.5097 22.8259 32.5097H23.0479C29.9972 32.5097 32.4559 30.0509 32.4559 23.1017V11.9691C32.4559 5.01987 29.9972 2.56116 23.0479 2.56116H22.8259C16.4913 2.56116 13.9643 4.59301 13.5033 10.0568C13.418 10.7569 12.8204 11.2862 12.1032 11.2179C11.3861 11.1666 10.8739 10.5349 10.9251 9.83484C11.5056 3.03924 15.1766 0 22.8089 0H23.0308C31.4144 0 35 3.58562 35 11.9691V23.1017C35 31.4852 31.4144 35.0708 23.0308 35.0708Z" fill="#292D32"/>
<path d="M22.6187 18.816H3.18811C2.48806 18.816 1.90753 18.2355 1.90753 17.5355C1.90753 16.8354 2.48806 16.2549 3.18811 16.2549H22.6187C23.3187 16.2549 23.8993 16.8354 23.8993 17.5355C23.8993 18.2355 23.3187 18.816 22.6187 18.816Z" fill="#292D32"/>
<path d="M6.99623 24.536C6.67181 24.536 6.3474 24.4165 6.09128 24.1604L0.371368 18.4405C-0.123789 17.9453 -0.123789 17.1258 0.371368 16.6306L6.09128 10.9107C6.58644 10.4155 7.40601 10.4155 7.90117 10.9107C8.39633 11.4058 8.39633 12.2254 7.90117 12.7206L3.08619 17.5356L7.90117 22.3505C8.39633 22.8457 8.39633 23.6653 7.90117 24.1604C7.66213 24.4165 7.32064 24.536 6.99623 24.536Z" fill="#292D32"/>
</svg>
