<svg width="35" height="44" viewBox="0 0 35 44" fill="none" xmlns="http://www.w3.org/2000/svg">
<path d="M17.5515 38.6222C12.9008 38.6222 8.2501 37.8837 3.83893 36.4066C2.16228 35.8278 0.884842 34.6501 0.325961 33.1132C-0.25288 31.5763 -0.0532801 29.8797 0.864882 28.3627L3.16029 24.5504C3.63933 23.752 4.07845 22.1552 4.07845 21.217V15.4486C4.07845 8.02348 10.1263 1.97559 17.5515 1.97559C24.9767 1.97559 31.0246 8.02348 31.0246 15.4486V21.217C31.0246 22.1352 31.4637 23.752 31.9427 24.5703L34.2182 28.3627C35.0765 29.7998 35.2361 31.5364 34.6573 33.1132C34.0785 34.6901 32.821 35.8877 31.2441 36.4066C26.8529 37.8837 22.2022 38.6222 17.5515 38.6222ZM17.5515 4.96959C11.783 4.96959 7.07246 9.6602 7.07246 15.4486V21.217C7.07246 22.6741 6.47365 24.8298 5.73513 26.0873L3.43973 29.8996C3.00061 30.6382 2.88085 31.4166 3.14033 32.0753C3.37985 32.7539 3.97865 33.2729 4.79701 33.5523C13.1403 36.3467 21.9827 36.3467 30.326 33.5523C31.0445 33.3128 31.6034 32.7739 31.8629 32.0553C32.1224 31.3368 32.0625 30.5583 31.6633 29.8996L29.3679 26.0873C28.6094 24.7899 28.0306 22.6542 28.0306 21.1971V15.4486C28.0306 9.6602 23.34 4.96959 17.5515 4.96959Z" fill="#292D32"/>
<path d="M21.2635 5.50897C21.1238 5.50897 20.9841 5.48901 20.8444 5.44909C20.2655 5.28941 19.7067 5.16965 19.1677 5.08981C17.4711 4.87025 15.8344 4.99001 14.2975 5.44909C13.7386 5.62873 13.1399 5.44909 12.7606 5.02993C12.3814 4.61077 12.2616 4.01197 12.4812 3.47305C13.2995 1.37724 15.2955 0 17.5709 0C19.8464 0 21.8424 1.35728 22.6607 3.47305C22.8603 4.01197 22.7605 4.61077 22.3813 5.02993C22.0819 5.34929 21.6627 5.50897 21.2635 5.50897Z" fill="#292D32"/>
<path d="M17.5507 43.173C15.5746 43.173 13.6585 42.3746 12.2613 40.9774C10.8641 39.5802 10.0657 37.664 10.0657 35.688H13.0597C13.0597 36.8656 13.5387 38.0233 14.377 38.8616C15.2154 39.7 16.373 40.179 17.5507 40.179C20.0257 40.179 22.0417 38.163 22.0417 35.688H25.0357C25.0357 39.8197 21.6824 43.173 17.5507 43.173Z" fill="#292D32"/>
</svg>
